<svg width="88" height="29" viewBox="0 0 88 29" fill="none" xmlns="http://www.w3.org/2000/svg">
<g clip-path="url(#clip0_29_2)">
<path d="M4.97581 28.5312H2.78831C2.11644 28.5312 1.57477 27.9843 1.57477 27.3125V1.39579C1.57477 0.723918 2.11644 0.182251 2.78831 0.182251H11.481L4.97581 28.5312Z" fill="#D3D6E2"/>
<path d="M15.7519 0.234334L19.0175 14.4687L15.7935 28.5312H9.00708L10.6477 14.4375L15.6269 0.234334L15.3821 0.182251H15.9915L15.7519 0.234334Z" fill="#D3D6E2"/>
<path d="M22.2467 28.5313H19.9446L21.0956 23.5209L22.2467 28.5313Z" fill="#D3D6E2"/>
<path d="M28.7102 0.182251C29.3821 0.182251 29.9238 0.723918 29.9238 1.39579V27.3125C29.9238 27.9843 29.3821 28.5312 28.7102 28.5312H26.4029L23.1738 14.4687L26.4394 0.234334L26.1998 0.182251H28.7102Z" fill="#D3D6E2"/>
<path d="M21.0956 5.42183L19.8925 0.182251H22.2988L21.0956 5.42183Z" fill="#D3D6E2"/>
<path d="M38.8612 19.5104H36.1841L39.6633 9.19788H42.981L46.4602 19.5104H43.7831L41.3612 11.7968H41.2779L38.8612 19.5104ZM38.5071 15.4531H44.1008V17.3437H38.5071V15.4531ZM50.0904 9.19788L51.9758 12.4583H52.0539L53.955 9.19788H56.7466L53.6321 14.3541L56.8456 19.5104H53.9862L52.0539 16.2187H51.9758L50.0383 19.5104H47.1998L50.3977 14.3541L47.2831 9.19788H50.0904ZM58.0331 19.5104V9.19788H65.2206V11.2239H60.5279V13.3385H64.856V15.3645H60.5279V17.4843H65.2206V19.5104H58.0331ZM75.5539 9.19788V19.5104H73.4446L69.3404 13.5572H69.2727V19.5104H66.7831V9.19788H68.9289L72.9862 15.1406H73.0696V9.19788H75.5539ZM76.7883 11.2239V9.19788H85.5018V11.2239H82.3716V19.5104H79.9185V11.2239H76.7883Z" fill="#D3D6E2"/>
</g>
<defs>
<clipPath id="clip0_29_2">
<rect width="88" height="29" fill="white"/>
</clipPath>
</defs>
</svg>
